<?xml version="1.0" encoding="UTF-8"?>
<svg width="24px" height="24px" viewBox="0 0 24 24" version="1.1" xmlns="http://www.w3.org/2000/svg" xmlns:xlink="http://www.w3.org/1999/xlink">
    <!-- Generator: Sketch 53.2 (72643) - https://sketchapp.com -->
    <title>icon/add photo_active</title>
    <desc>Created with Sketch.</desc>
    <defs>
        <linearGradient x1="0%" y1="18.6631944%" x2="83.6321351%" y2="71.0784736%" id="linearGradient-1">
            <stop stop-color="#FF6CC9" offset="0%"></stop>
            <stop stop-color="#8559F0" offset="100%"></stop>
        </linearGradient>
    </defs>
    <g id="icon/add-photo_active" stroke="none" stroke-width="1" fill="none" fill-rule="evenodd">
        <rect id="Rectangle" fill="#FFFFFF" fill-rule="nonzero" opacity="0" x="0" y="0" width="24" height="24"></rect>
        <path d="M1.63636364,3 C0.739252991,3 0,3.75737185 0,4.67647059 L0,16.4117647 C0,17.3308634 0.739252991,18.0882353 1.63636364,18.0882353 L13.0909091,18.0882353 C13.2876205,18.0910869 13.4705922,17.9852038 13.5697602,17.811131 C13.6689282,17.6370583 13.6689282,17.4217652 13.5697602,17.2476925 C13.4705922,17.0736197 13.2876205,16.9677366 13.0909091,16.9705882 L1.63636364,16.9705882 C1.32474709,16.9705882 1.09090909,16.7310189 1.09090909,16.4117647 L1.09090909,14.1415441 L6.23863636,10.6663603 L9.75,13.4954044 C9.93160149,13.6432279 10.1845853,13.6572379 10.3806818,13.5303309 L13.0482955,11.792739 L15.8181818,14.1939338 C15.1371867,15.0212332 14.7272727,16.0875115 14.7272727,17.25 C14.7272727,19.8667334 16.8095043,22 19.3636364,22 C21.9177682,22 24,19.8667334 24,17.25 C24,14.920954 22.3456947,12.9785678 20.1818182,12.5785846 L20.1818182,4.67647059 C20.1818182,3.75737185 19.4425653,3 18.5454545,3 L1.63636364,3 Z M1.63636364,4.11764706 L18.5454545,4.11764706 C18.8570711,4.11764706 19.0909091,4.35721638 19.0909091,4.67647059 L19.0909091,12.5174632 C18.1714159,12.5733847 17.3190665,12.8967555 16.6193182,13.4255515 L13.4403409,10.6750919 C13.2589286,10.5203986 13.0009865,10.502781 12.8011364,10.6314338 L10.125,12.3777574 L6.61363636,9.54871324 C6.5123096,9.46564068 6.38539434,9.4222987 6.25568182,9.42647059 C6.15507498,9.43127305 6.05772983,9.46451673 5.97443182,9.52251838 L1.09090909,12.8056066 L1.09090909,4.67647059 C1.09090909,4.35721638 1.32474709,4.11764706 1.63636364,4.11764706 Z M11.1818182,4.95588235 C9.83267127,4.95588235 8.72727273,6.08837372 8.72727273,7.47058824 C8.72727273,8.85280275 9.83267127,9.98529412 11.1818182,9.98529412 C12.5309654,9.98529412 13.6363636,8.85280275 13.6363636,7.47058824 C13.6363636,6.08837372 12.5309654,4.95588235 11.1818182,4.95588235 Z M11.1818182,6.07352941 C11.9413942,6.07352941 12.5454545,6.6923949 12.5454545,7.47058824 C12.5454545,8.24878157 11.9413942,8.86764706 11.1818182,8.86764706 C10.4222425,8.86764706 9.81818182,8.24878157 9.81818182,7.47058824 C9.81818182,6.6923949 10.4222425,6.07352941 11.1818182,6.07352941 Z M19.3636364,13.6176471 C21.3281978,13.6176471 22.9090909,15.2372875 22.9090909,17.25 C22.9090909,19.2627128 21.3281978,20.8823529 19.3636364,20.8823529 C17.3990749,20.8823529 15.8181818,19.2627128 15.8181818,17.25 C15.8181818,15.2372875 17.3990749,13.6176471 19.3636364,13.6176471 Z M19.3039773,14.7265625 C19.0229612,14.7582004 18.8121016,15.0045478 18.8181818,15.2941176 L18.8181818,16.6911765 L17.4545455,16.6911765 C17.4375094,16.6903575 17.4204452,16.6903575 17.4034091,16.6911765 C17.2085091,16.7004963 17.033272,16.8156483 16.9437233,16.9932457 C16.8541746,17.1708432 16.8639225,17.3838972 16.9692944,17.5521338 C17.0746663,17.7203704 17.2596492,17.8182232 17.4545455,17.8088235 L18.8181818,17.8088235 L18.8181818,19.2058824 C18.8153984,19.4074151 18.9187484,19.5948714 19.0886568,19.69647 C19.2585651,19.7980686 19.4687076,19.7980686 19.6386159,19.69647 C19.8085243,19.5948714 19.9118743,19.4074151 19.9090909,19.2058824 L19.9090909,17.8088235 L21.2727273,17.8088235 C21.4694387,17.8116751 21.6524104,17.705792 21.7515784,17.5317193 C21.8507464,17.3576465 21.8507464,17.1423535 21.7515784,16.9682807 C21.6524104,16.794208 21.4694387,16.6883249 21.2727273,16.6911765 L19.9090909,16.6911765 L19.9090909,15.2941176 C19.9114008,15.1428796 19.8537776,14.9971406 19.7493818,14.8901861 C19.6449859,14.7832316 19.5027336,14.724196 19.3551136,14.7265625 C19.3380776,14.7257435 19.3210134,14.7257435 19.3039773,14.7265625 Z" id="Shape" fill="url(#linearGradient-1)" fill-rule="nonzero"></path>
    </g>
</svg>