<?xml version="1.0" encoding="UTF-8"?>
<svg width="69px" height="76px" viewBox="0 0 69 76" version="1.1" xmlns="http://www.w3.org/2000/svg" xmlns:xlink="http://www.w3.org/1999/xlink">
    <!-- Generator: Sketch 53.1 (72631) - https://sketchapp.com -->
    <title>arrow</title>
    <desc>Created with Sketch.</desc>
    <g id="App" stroke="none" stroke-width="1" fill="none" fill-rule="evenodd">
        <g id="app-6" transform="translate(-185.000000, -418.000000)" fill="#000000">
            <path d="M257.031547,425.210538 C256.355991,423.089501 253.484877,422.834977 251.627097,422.495611 C248.671539,421.986562 245.715981,421.986562 242.760422,422.410769 C242.3382,422.495611 242.422644,424.531806 242.844867,424.446965 C245.124869,424.19244 247.320427,424.107599 249.600429,424.362123 C251.458208,424.531806 253.9071,424.78633 255.511545,425.719587 C242.422644,426.992209 229.587077,431.234282 218.102621,437.597393 C212.10706,440.90621 206.533722,444.893759 201.382606,449.390357 C196.147045,453.971796 191.249263,459.231968 187.702593,465.340554 C183.564811,472.212713 181.200364,480.187811 181.369254,488.247751 C181.369254,488.417434 181.453698,489.265848 181.791476,489.265848 C182.129254,489.265848 182.129254,488.502275 182.129254,488.247751 C181.875921,473.824701 190.911485,461.437846 201.298161,452.359809 C211.093726,443.79082 222.74707,437.258027 235.24486,433.185636 C241.493755,431.149441 247.911538,429.791977 254.413767,429.028404 C253.991544,429.452611 253.569321,429.876819 253.147099,430.301026 C251.542653,431.913014 249.938207,433.440161 248.164872,434.882466 C247.658205,435.306673 248.164872,437.42771 248.418205,437.173185 C250.698208,435.221831 252.809321,433.185636 254.835989,430.979758 C255.511545,430.301026 256.102657,429.537453 256.52488,428.77388 C256.609324,428.77388 256.778213,428.77388 256.862658,428.77388 C257.45377,428.689038 257.45377,426.907367 257.200436,425.974111 C257.115991,425.719587 257.115991,425.465062 257.031547,425.210538 Z" id="arrow" transform="translate(219.361011, 455.684172) scale(1, -1) rotate(89.000000) translate(-219.361011, -455.684172) "></path>
        </g>
    </g>
</svg>